<?xml version="1.0" encoding="UTF-8"?><svg xmlns="http://www.w3.org/2000/svg" xmlns:xlink="http://www.w3.org/1999/xlink" stroke-dasharray="none" shape-rendering="auto" font-family="'Dialog'" width="1406" text-rendering="auto" fill-opacity="1" contentScriptType="text/ecmascript" color-interpolation="auto" color-rendering="auto" preserveAspectRatio="xMidYMid meet" font-size="12px" fill="black" stroke="black" image-rendering="auto" stroke-miterlimit="10" zoomAndPan="magnify" version="1.0" stroke-linecap="square" stroke-linejoin="miter" contentStyleType="text/css" font-style="normal" height="536" stroke-width="1" stroke-dashoffset="0" font-weight="normal" stroke-opacity="1">
    <!--Generated by the Batik Graphics2D SVG Generator-->
    <defs id="genericDefs"/>
    <g>
        <defs id="defs1">
            <clipPath clipPathUnits="userSpaceOnUse" id="clipPath1">
                <path d="M39 9 L1381 9 L1381 497 L39 497 L39 9 Z"/>
            </clipPath>
            <clipPath clipPathUnits="userSpaceOnUse" id="clipPath2">
                <path d="M-1 -1 L1407 -1 L1407 537 L-1 537 L-1 -1 Z"/>
            </clipPath>
            <clipPath clipPathUnits="userSpaceOnUse" id="clipPath3">
                <path d="M1218 14 L1377 14 L1377 98 L1218 98 L1218 14 Z"/>
            </clipPath>
            <clipPath clipPathUnits="userSpaceOnUse" id="clipPath4">
                <path d="M39 495 L1381 495 L1381 537 L39 537 L39 495 Z"/>
            </clipPath>
        </defs>
        <g fill="white" text-rendering="optimizeLegibility" font-family="'Segoe UI'" stroke-linejoin="round" stroke="white" stroke-width="0" stroke-miterlimit="0">
            <rect x="40" width="1340" height="486" y="10" clip-path="url(#clipPath1)" stroke="none"/>
        </g>
        <g fill="rgb(204,204,204)" text-rendering="optimizeLegibility" stroke-dasharray="3,3" font-family="'Segoe UI'" stroke-linecap="butt" stroke="rgb(204,204,204)">
            <line y2="496" fill="none" x1="40" clip-path="url(#clipPath1)" x2="1380" y1="496"/>
            <line y2="440" fill="none" x1="40" clip-path="url(#clipPath1)" x2="1380" y1="440"/>
            <line y2="385" fill="none" x1="40" clip-path="url(#clipPath1)" x2="1380" y1="385"/>
            <line y2="330" fill="none" x1="40" clip-path="url(#clipPath1)" x2="1380" y1="330"/>
            <line y2="275" fill="none" x1="40" clip-path="url(#clipPath1)" x2="1380" y1="275"/>
            <line y2="219" fill="none" x1="40" clip-path="url(#clipPath1)" x2="1380" y1="219"/>
            <line y2="164" fill="none" x1="40" clip-path="url(#clipPath1)" x2="1380" y1="164"/>
            <line y2="109" fill="none" x1="40" clip-path="url(#clipPath1)" x2="1380" y1="109"/>
            <line y2="54" fill="none" x1="40" clip-path="url(#clipPath1)" x2="1380" y1="54"/>
            <rect x="191" y="440" clip-path="url(#clipPath1)" fill="rgb(214,39,40)" width="27" height="55" stroke="none"/>
            <rect x="191" y="440" clip-path="url(#clipPath1)" fill="none" width="27" stroke-dasharray="none" height="55" stroke="black"/>
            <rect x="380" y="440" clip-path="url(#clipPath1)" fill="rgb(214,39,40)" width="27" stroke-dasharray="none" height="55" stroke="none"/>
            <rect x="380" y="440" clip-path="url(#clipPath1)" fill="none" width="27" stroke-dasharray="none" height="55" stroke="black"/>
            <rect x="569" y="440" clip-path="url(#clipPath1)" fill="rgb(214,39,40)" width="27" stroke-dasharray="none" height="55" stroke="none"/>
            <rect x="569" y="440" clip-path="url(#clipPath1)" fill="none" width="27" stroke-dasharray="none" height="55" stroke="black"/>
            <rect x="758" y="440" clip-path="url(#clipPath1)" fill="rgb(214,39,40)" width="27" stroke-dasharray="none" height="55" stroke="none"/>
            <rect x="758" y="440" clip-path="url(#clipPath1)" fill="none" width="27" stroke-dasharray="none" height="55" stroke="black"/>
            <rect x="947" y="440" clip-path="url(#clipPath1)" fill="rgb(214,39,40)" width="27" stroke-dasharray="none" height="55" stroke="none"/>
            <rect x="947" y="440" clip-path="url(#clipPath1)" fill="none" width="27" stroke-dasharray="none" height="55" stroke="black"/>
            <rect x="1136" y="440" clip-path="url(#clipPath1)" fill="rgb(214,39,40)" width="27" stroke-dasharray="none" height="55" stroke="none"/>
            <rect x="1136" y="440" clip-path="url(#clipPath1)" fill="none" width="27" stroke-dasharray="none" height="55" stroke="black"/>
            <rect x="1325" y="440" clip-path="url(#clipPath1)" fill="rgb(214,39,40)" width="27" stroke-dasharray="none" height="55" stroke="none"/>
            <rect x="1325" y="440" clip-path="url(#clipPath1)" fill="none" width="27" stroke-dasharray="none" height="55" stroke="black"/>
            <rect x="149" y="54" clip-path="url(#clipPath1)" fill="rgb(44,160,44)" width="27" stroke-dasharray="none" height="441" stroke="none"/>
            <rect x="149" y="54" clip-path="url(#clipPath1)" fill="none" width="27" stroke-dasharray="none" height="441" stroke="black"/>
            <rect x="338" y="54" clip-path="url(#clipPath1)" fill="rgb(44,160,44)" width="27" stroke-dasharray="none" height="441" stroke="none"/>
            <rect x="338" y="54" clip-path="url(#clipPath1)" fill="none" width="27" stroke-dasharray="none" height="441" stroke="black"/>
            <rect x="527" y="54" clip-path="url(#clipPath1)" fill="rgb(44,160,44)" width="27" stroke-dasharray="none" height="441" stroke="none"/>
            <rect x="527" y="54" clip-path="url(#clipPath1)" fill="none" width="27" stroke-dasharray="none" height="441" stroke="black"/>
            <rect x="716" y="54" clip-path="url(#clipPath1)" fill="rgb(44,160,44)" width="27" stroke-dasharray="none" height="441" stroke="none"/>
            <rect x="716" y="54" clip-path="url(#clipPath1)" fill="none" width="27" stroke-dasharray="none" height="441" stroke="black"/>
            <rect x="905" y="54" clip-path="url(#clipPath1)" fill="rgb(44,160,44)" width="27" stroke-dasharray="none" height="441" stroke="none"/>
            <rect x="905" y="54" clip-path="url(#clipPath1)" fill="none" width="27" stroke-dasharray="none" height="441" stroke="black"/>
            <rect x="1094" y="54" clip-path="url(#clipPath1)" fill="rgb(44,160,44)" width="27" stroke-dasharray="none" height="441" stroke="none"/>
            <rect x="1094" y="54" clip-path="url(#clipPath1)" fill="none" width="27" stroke-dasharray="none" height="441" stroke="black"/>
            <rect x="1283" y="54" clip-path="url(#clipPath1)" fill="rgb(44,160,44)" width="27" stroke-dasharray="none" height="441" stroke="none"/>
            <rect x="1283" y="54" clip-path="url(#clipPath1)" fill="none" width="27" stroke-dasharray="none" height="441" stroke="black"/>
            <rect x="108" y="275" clip-path="url(#clipPath1)" fill="rgb(255,127,14)" width="27" stroke-dasharray="none" height="220" stroke="none"/>
            <rect x="108" y="275" clip-path="url(#clipPath1)" fill="none" width="27" stroke-dasharray="none" height="220" stroke="black"/>
            <rect x="297" y="275" clip-path="url(#clipPath1)" fill="rgb(255,127,14)" width="27" stroke-dasharray="none" height="220" stroke="none"/>
            <rect x="297" y="275" clip-path="url(#clipPath1)" fill="none" width="27" stroke-dasharray="none" height="220" stroke="black"/>
            <rect x="486" y="275" clip-path="url(#clipPath1)" fill="rgb(255,127,14)" width="27" stroke-dasharray="none" height="220" stroke="none"/>
            <rect x="486" y="275" clip-path="url(#clipPath1)" fill="none" width="27" stroke-dasharray="none" height="220" stroke="black"/>
            <rect x="675" y="275" clip-path="url(#clipPath1)" fill="rgb(255,127,14)" width="27" stroke-dasharray="none" height="220" stroke="none"/>
            <rect x="675" y="275" clip-path="url(#clipPath1)" fill="none" width="27" stroke-dasharray="none" height="220" stroke="black"/>
            <rect x="864" y="275" clip-path="url(#clipPath1)" fill="rgb(255,127,14)" width="27" stroke-dasharray="none" height="220" stroke="none"/>
            <rect x="864" y="275" clip-path="url(#clipPath1)" fill="none" width="27" stroke-dasharray="none" height="220" stroke="black"/>
            <rect x="1053" y="275" clip-path="url(#clipPath1)" fill="rgb(255,127,14)" width="27" stroke-dasharray="none" height="220" stroke="none"/>
            <rect x="1053" y="275" clip-path="url(#clipPath1)" fill="none" width="27" stroke-dasharray="none" height="220" stroke="black"/>
            <rect x="1242" y="275" clip-path="url(#clipPath1)" fill="rgb(255,127,14)" width="27" stroke-dasharray="none" height="220" stroke="none"/>
            <rect x="1242" y="275" clip-path="url(#clipPath1)" fill="none" width="27" stroke-dasharray="none" height="220" stroke="black"/>
            <rect x="67" y="275" clip-path="url(#clipPath1)" fill="rgb(31,119,180)" width="27" stroke-dasharray="none" height="220" stroke="none"/>
            <rect x="67" y="275" clip-path="url(#clipPath1)" fill="none" width="27" stroke-dasharray="none" height="220" stroke="black"/>
            <rect x="256" y="275" clip-path="url(#clipPath1)" fill="rgb(31,119,180)" width="27" stroke-dasharray="none" height="220" stroke="none"/>
            <rect x="256" y="275" clip-path="url(#clipPath1)" fill="none" width="27" stroke-dasharray="none" height="220" stroke="black"/>
            <rect x="445" y="275" clip-path="url(#clipPath1)" fill="rgb(31,119,180)" width="27" stroke-dasharray="none" height="220" stroke="none"/>
            <rect x="445" y="275" clip-path="url(#clipPath1)" fill="none" width="27" stroke-dasharray="none" height="220" stroke="black"/>
            <rect x="634" y="275" clip-path="url(#clipPath1)" fill="rgb(31,119,180)" width="27" stroke-dasharray="none" height="220" stroke="none"/>
            <rect x="634" y="275" clip-path="url(#clipPath1)" fill="none" width="27" stroke-dasharray="none" height="220" stroke="black"/>
            <rect x="823" y="275" clip-path="url(#clipPath1)" fill="rgb(31,119,180)" width="27" stroke-dasharray="none" height="220" stroke="none"/>
            <rect x="823" y="275" clip-path="url(#clipPath1)" fill="none" width="27" stroke-dasharray="none" height="220" stroke="black"/>
            <rect x="1012" y="275" clip-path="url(#clipPath1)" fill="rgb(31,119,180)" width="27" stroke-dasharray="none" height="220" stroke="none"/>
            <rect x="1012" y="275" clip-path="url(#clipPath1)" fill="none" width="27" stroke-dasharray="none" height="220" stroke="black"/>
            <rect x="1201" y="275" clip-path="url(#clipPath1)" fill="rgb(31,119,180)" width="27" stroke-dasharray="none" height="220" stroke="none"/>
            <rect x="1201" y="275" clip-path="url(#clipPath1)" fill="none" width="27" stroke-dasharray="none" height="220" stroke="black"/>
            <rect x="40" y="10" clip-path="url(#clipPath2)" fill="none" width="1340" stroke-dasharray="none" height="486" stroke="black"/>
            <line clip-path="url(#clipPath2)" fill="none" x1="41" x2="1379" y1="496" y2="496" stroke-dasharray="none"/>
            <rect x="1219" y="15" clip-path="url(#clipPath3)" fill="white" width="156" stroke-dasharray="none" opacity="0.753" height="81" stroke="none"/>
            <polygon fill="rgb(31,119,180)" stroke-dasharray="none" clip-path="url(#clipPath3)" points=" 1228 23 1228 31 1236 31 1236 23" stroke="none"/>
        </g>
        <g text-rendering="optimizeLegibility" font-size="10px" font-family="'Arial'" stroke-linecap="butt">
            <text x="1241" xml:space="preserve" y="30" clip-path="url(#clipPath3)" stroke="none">mensagensEnviadasFinal</text>
            <polygon fill="rgb(255,127,14)" clip-path="url(#clipPath3)" points=" 1228 42 1228 50 1236 50 1236 42" stroke="none"/>
            <text x="1241" xml:space="preserve" y="49" clip-path="url(#clipPath3)" stroke="none">mensagensRecebidasFinal</text>
            <polygon fill="rgb(44,160,44)" clip-path="url(#clipPath3)" points=" 1228 61 1228 69 1236 69 1236 61" stroke="none"/>
            <text x="1241" xml:space="preserve" y="68" clip-path="url(#clipPath3)" stroke="none">mensagensTrocadas</text>
            <polygon fill="rgb(214,39,40)" clip-path="url(#clipPath3)" points=" 1228 80 1228 88 1236 88 1236 80" stroke="none"/>
            <text x="1241" xml:space="preserve" y="87" clip-path="url(#clipPath3)" stroke="none">tempoConvergenciaFinal</text>
            <line y2="496" fill="none" x1="38" clip-path="url(#clipPath2)" x2="38" y1="10"/>
            <line y2="496" fill="none" x1="1382" clip-path="url(#clipPath2)" x2="1382" y1="10"/>
            <line y2="496" fill="none" x1="34" clip-path="url(#clipPath2)" x2="38" y1="496"/>
            <line y2="496" fill="none" x1="1386" clip-path="url(#clipPath2)" x2="1382" y1="496"/>
            <text x="27" xml:space="preserve" y="500" clip-path="url(#clipPath2)" stroke="none">0</text>
            <text x="1389" xml:space="preserve" y="500" clip-path="url(#clipPath2)" stroke="none">0</text>
            <line y2="484" fill="none" x1="36" clip-path="url(#clipPath2)" x2="38" y1="484"/>
            <line y2="484" fill="none" x1="1384" clip-path="url(#clipPath2)" x2="1382" y1="484"/>
            <line y2="473" fill="none" x1="36" clip-path="url(#clipPath2)" x2="38" y1="473"/>
            <line y2="473" fill="none" x1="1384" clip-path="url(#clipPath2)" x2="1382" y1="473"/>
            <line y2="462" fill="none" x1="36" clip-path="url(#clipPath2)" x2="38" y1="462"/>
            <line y2="462" fill="none" x1="1384" clip-path="url(#clipPath2)" x2="1382" y1="462"/>
            <line y2="451" fill="none" x1="36" clip-path="url(#clipPath2)" x2="38" y1="451"/>
            <line y2="451" fill="none" x1="1384" clip-path="url(#clipPath2)" x2="1382" y1="451"/>
            <line y2="440" fill="none" x1="34" clip-path="url(#clipPath2)" x2="38" y1="440"/>
            <line y2="440" fill="none" x1="1386" clip-path="url(#clipPath2)" x2="1382" y1="440"/>
            <text x="27" xml:space="preserve" y="444" clip-path="url(#clipPath2)" stroke="none">5</text>
            <text x="1389" xml:space="preserve" y="444" clip-path="url(#clipPath2)" stroke="none">5</text>
            <line y2="429" fill="none" x1="36" clip-path="url(#clipPath2)" x2="38" y1="429"/>
            <line y2="429" fill="none" x1="1384" clip-path="url(#clipPath2)" x2="1382" y1="429"/>
            <line y2="418" fill="none" x1="36" clip-path="url(#clipPath2)" x2="38" y1="418"/>
            <line y2="418" fill="none" x1="1384" clip-path="url(#clipPath2)" x2="1382" y1="418"/>
            <line y2="407" fill="none" x1="36" clip-path="url(#clipPath2)" x2="38" y1="407"/>
            <line y2="407" fill="none" x1="1384" clip-path="url(#clipPath2)" x2="1382" y1="407"/>
            <line y2="396" fill="none" x1="36" clip-path="url(#clipPath2)" x2="38" y1="396"/>
            <line y2="396" fill="none" x1="1384" clip-path="url(#clipPath2)" x2="1382" y1="396"/>
            <line y2="385" fill="none" x1="34" clip-path="url(#clipPath2)" x2="38" y1="385"/>
            <line y2="385" fill="none" x1="1386" clip-path="url(#clipPath2)" x2="1382" y1="385"/>
            <text x="21" xml:space="preserve" y="389" clip-path="url(#clipPath2)" stroke="none">10</text>
            <text x="1389" xml:space="preserve" y="389" clip-path="url(#clipPath2)" stroke="none">10</text>
            <line y2="374" fill="none" x1="36" clip-path="url(#clipPath2)" x2="38" y1="374"/>
            <line y2="374" fill="none" x1="1384" clip-path="url(#clipPath2)" x2="1382" y1="374"/>
            <line y2="363" fill="none" x1="36" clip-path="url(#clipPath2)" x2="38" y1="363"/>
            <line y2="363" fill="none" x1="1384" clip-path="url(#clipPath2)" x2="1382" y1="363"/>
            <line y2="352" fill="none" x1="36" clip-path="url(#clipPath2)" x2="38" y1="352"/>
            <line y2="352" fill="none" x1="1384" clip-path="url(#clipPath2)" x2="1382" y1="352"/>
            <line y2="341" fill="none" x1="36" clip-path="url(#clipPath2)" x2="38" y1="341"/>
            <line y2="341" fill="none" x1="1384" clip-path="url(#clipPath2)" x2="1382" y1="341"/>
            <line y2="330" fill="none" x1="34" clip-path="url(#clipPath2)" x2="38" y1="330"/>
            <line y2="330" fill="none" x1="1386" clip-path="url(#clipPath2)" x2="1382" y1="330"/>
            <text x="21" xml:space="preserve" y="334" clip-path="url(#clipPath2)" stroke="none">15</text>
            <text x="1389" xml:space="preserve" y="334" clip-path="url(#clipPath2)" stroke="none">15</text>
            <line y2="319" fill="none" x1="36" clip-path="url(#clipPath2)" x2="38" y1="319"/>
            <line y2="319" fill="none" x1="1384" clip-path="url(#clipPath2)" x2="1382" y1="319"/>
            <line y2="308" fill="none" x1="36" clip-path="url(#clipPath2)" x2="38" y1="308"/>
            <line y2="308" fill="none" x1="1384" clip-path="url(#clipPath2)" x2="1382" y1="308"/>
            <line y2="297" fill="none" x1="36" clip-path="url(#clipPath2)" x2="38" y1="297"/>
            <line y2="297" fill="none" x1="1384" clip-path="url(#clipPath2)" x2="1382" y1="297"/>
            <line y2="286" fill="none" x1="36" clip-path="url(#clipPath2)" x2="38" y1="286"/>
            <line y2="286" fill="none" x1="1384" clip-path="url(#clipPath2)" x2="1382" y1="286"/>
            <line y2="275" fill="none" x1="34" clip-path="url(#clipPath2)" x2="38" y1="275"/>
            <line y2="275" fill="none" x1="1386" clip-path="url(#clipPath2)" x2="1382" y1="275"/>
            <text x="21" xml:space="preserve" y="279" clip-path="url(#clipPath2)" stroke="none">20</text>
            <text x="1389" xml:space="preserve" y="279" clip-path="url(#clipPath2)" stroke="none">20</text>
            <line y2="264" fill="none" x1="36" clip-path="url(#clipPath2)" x2="38" y1="264"/>
            <line y2="264" fill="none" x1="1384" clip-path="url(#clipPath2)" x2="1382" y1="264"/>
            <line y2="253" fill="none" x1="36" clip-path="url(#clipPath2)" x2="38" y1="253"/>
            <line y2="253" fill="none" x1="1384" clip-path="url(#clipPath2)" x2="1382" y1="253"/>
            <line y2="241" fill="none" x1="36" clip-path="url(#clipPath2)" x2="38" y1="241"/>
            <line y2="241" fill="none" x1="1384" clip-path="url(#clipPath2)" x2="1382" y1="241"/>
            <line y2="230" fill="none" x1="36" clip-path="url(#clipPath2)" x2="38" y1="230"/>
            <line y2="230" fill="none" x1="1384" clip-path="url(#clipPath2)" x2="1382" y1="230"/>
            <line y2="219" fill="none" x1="34" clip-path="url(#clipPath2)" x2="38" y1="219"/>
            <line y2="219" fill="none" x1="1386" clip-path="url(#clipPath2)" x2="1382" y1="219"/>
            <text x="21" xml:space="preserve" y="223" clip-path="url(#clipPath2)" stroke="none">25</text>
            <text x="1389" xml:space="preserve" y="223" clip-path="url(#clipPath2)" stroke="none">25</text>
            <line y2="208" fill="none" x1="36" clip-path="url(#clipPath2)" x2="38" y1="208"/>
            <line y2="208" fill="none" x1="1384" clip-path="url(#clipPath2)" x2="1382" y1="208"/>
            <line y2="197" fill="none" x1="36" clip-path="url(#clipPath2)" x2="38" y1="197"/>
            <line y2="197" fill="none" x1="1384" clip-path="url(#clipPath2)" x2="1382" y1="197"/>
            <line y2="186" fill="none" x1="36" clip-path="url(#clipPath2)" x2="38" y1="186"/>
            <line y2="186" fill="none" x1="1384" clip-path="url(#clipPath2)" x2="1382" y1="186"/>
            <line y2="175" fill="none" x1="36" clip-path="url(#clipPath2)" x2="38" y1="175"/>
            <line y2="175" fill="none" x1="1384" clip-path="url(#clipPath2)" x2="1382" y1="175"/>
            <line y2="164" fill="none" x1="34" clip-path="url(#clipPath2)" x2="38" y1="164"/>
            <line y2="164" fill="none" x1="1386" clip-path="url(#clipPath2)" x2="1382" y1="164"/>
            <text x="21" xml:space="preserve" y="168" clip-path="url(#clipPath2)" stroke="none">30</text>
            <text x="1389" xml:space="preserve" y="168" clip-path="url(#clipPath2)" stroke="none">30</text>
            <line y2="153" fill="none" x1="36" clip-path="url(#clipPath2)" x2="38" y1="153"/>
            <line y2="153" fill="none" x1="1384" clip-path="url(#clipPath2)" x2="1382" y1="153"/>
            <line y2="142" fill="none" x1="36" clip-path="url(#clipPath2)" x2="38" y1="142"/>
            <line y2="142" fill="none" x1="1384" clip-path="url(#clipPath2)" x2="1382" y1="142"/>
            <line y2="131" fill="none" x1="36" clip-path="url(#clipPath2)" x2="38" y1="131"/>
            <line y2="131" fill="none" x1="1384" clip-path="url(#clipPath2)" x2="1382" y1="131"/>
            <line y2="120" fill="none" x1="36" clip-path="url(#clipPath2)" x2="38" y1="120"/>
            <line y2="120" fill="none" x1="1384" clip-path="url(#clipPath2)" x2="1382" y1="120"/>
            <line y2="109" fill="none" x1="34" clip-path="url(#clipPath2)" x2="38" y1="109"/>
            <line y2="109" fill="none" x1="1386" clip-path="url(#clipPath2)" x2="1382" y1="109"/>
            <text x="21" xml:space="preserve" y="113" clip-path="url(#clipPath2)" stroke="none">35</text>
            <text x="1389" xml:space="preserve" y="113" clip-path="url(#clipPath2)" stroke="none">35</text>
            <line y2="98" fill="none" x1="36" clip-path="url(#clipPath2)" x2="38" y1="98"/>
            <line y2="98" fill="none" x1="1384" clip-path="url(#clipPath2)" x2="1382" y1="98"/>
            <line y2="87" fill="none" x1="36" clip-path="url(#clipPath2)" x2="38" y1="87"/>
            <line y2="87" fill="none" x1="1384" clip-path="url(#clipPath2)" x2="1382" y1="87"/>
            <line y2="76" fill="none" x1="36" clip-path="url(#clipPath2)" x2="38" y1="76"/>
            <line y2="76" fill="none" x1="1384" clip-path="url(#clipPath2)" x2="1382" y1="76"/>
            <line y2="65" fill="none" x1="36" clip-path="url(#clipPath2)" x2="38" y1="65"/>
            <line y2="65" fill="none" x1="1384" clip-path="url(#clipPath2)" x2="1382" y1="65"/>
            <line y2="54" fill="none" x1="34" clip-path="url(#clipPath2)" x2="38" y1="54"/>
            <line y2="54" fill="none" x1="1386" clip-path="url(#clipPath2)" x2="1382" y1="54"/>
            <text x="21" xml:space="preserve" y="58" clip-path="url(#clipPath2)" stroke="none">40</text>
            <text x="1389" xml:space="preserve" y="58" clip-path="url(#clipPath2)" stroke="none">40</text>
            <line y2="43" fill="none" x1="36" clip-path="url(#clipPath2)" x2="38" y1="43"/>
            <line y2="43" fill="none" x1="1384" clip-path="url(#clipPath2)" x2="1382" y1="43"/>
            <line y2="32" fill="none" x1="36" clip-path="url(#clipPath2)" x2="38" y1="32"/>
            <line y2="32" fill="none" x1="1384" clip-path="url(#clipPath2)" x2="1382" y1="32"/>
            <line y2="21" fill="none" x1="36" clip-path="url(#clipPath2)" x2="38" y1="21"/>
            <line y2="21" fill="none" x1="1384" clip-path="url(#clipPath2)" x2="1382" y1="21"/>
            <line y2="10" fill="none" x1="36" clip-path="url(#clipPath2)" x2="38" y1="10"/>
            <line y2="10" fill="none" x1="1384" clip-path="url(#clipPath2)" x2="1382" y1="10"/>
            <line y2="500" fill="none" x1="67" clip-path="url(#clipPath4)" x2="218" y1="500"/>
            <line y2="500" fill="none" x1="256" clip-path="url(#clipPath4)" x2="407" y1="500"/>
            <line y2="500" fill="none" x1="445" clip-path="url(#clipPath4)" x2="596" y1="500"/>
            <line y2="500" fill="none" x1="634" clip-path="url(#clipPath4)" x2="785" y1="500"/>
            <line y2="500" fill="none" x1="823" clip-path="url(#clipPath4)" x2="974" y1="500"/>
            <line y2="500" fill="none" x1="1012" clip-path="url(#clipPath4)" x2="1163" y1="500"/>
            <line y2="500" fill="none" x1="1201" clip-path="url(#clipPath4)" x2="1352" y1="500"/>
            <text x="67" xml:space="preserve" y="511" clip-path="url(#clipPath4)" stroke="none">TopologiaAnel.no[0]</text>
            <text x="256" xml:space="preserve" y="511" clip-path="url(#clipPath4)" stroke="none">TopologiaAnel.no[1]</text>
            <text x="445" xml:space="preserve" y="511" clip-path="url(#clipPath4)" stroke="none">TopologiaAnel.no[2]</text>
            <text x="634" xml:space="preserve" y="511" clip-path="url(#clipPath4)" stroke="none">TopologiaAnel.no[3]</text>
            <text x="823" xml:space="preserve" y="511" clip-path="url(#clipPath4)" stroke="none">TopologiaAnel.no[4]</text>
            <text x="1012" xml:space="preserve" y="511" clip-path="url(#clipPath4)" stroke="none">TopologiaAnel.no[5]</text>
            <text x="1201" xml:space="preserve" y="511" clip-path="url(#clipPath4)" stroke="none">TopologiaAnel.no[6]</text>
            <text x="693" xml:space="preserve" y="533" clip-path="url(#clipPath4)" stroke="none">module</text>
        </g>
    </g>
</svg>
