<?xml version="1.0" encoding="UTF-8"?><svg xmlns="http://www.w3.org/2000/svg" xmlns:xlink="http://www.w3.org/1999/xlink" stroke-dasharray="none" shape-rendering="auto" font-family="'Dialog'" width="1406" text-rendering="auto" fill-opacity="1" contentScriptType="text/ecmascript" color-interpolation="auto" color-rendering="auto" preserveAspectRatio="xMidYMid meet" font-size="12px" fill="black" stroke="black" image-rendering="auto" stroke-miterlimit="10" zoomAndPan="magnify" version="1.0" stroke-linecap="square" stroke-linejoin="miter" contentStyleType="text/css" font-style="normal" height="536" stroke-width="1" stroke-dashoffset="0" font-weight="normal" stroke-opacity="1">
    <!--Generated by the Batik Graphics2D SVG Generator-->
    <defs id="genericDefs"/>
    <g>
        <defs id="defs1">
            <clipPath clipPathUnits="userSpaceOnUse" id="clipPath1">
                <path d="M39 9 L1381 9 L1381 497 L39 497 L39 9 Z"/>
            </clipPath>
            <clipPath clipPathUnits="userSpaceOnUse" id="clipPath2">
                <path d="M-1 -1 L1407 -1 L1407 537 L-1 537 L-1 -1 Z"/>
            </clipPath>
            <clipPath clipPathUnits="userSpaceOnUse" id="clipPath3">
                <path d="M1240 14 L1377 14 L1377 79 L1240 79 L1240 14 Z"/>
            </clipPath>
            <clipPath clipPathUnits="userSpaceOnUse" id="clipPath4">
                <path d="M39 495 L1381 495 L1381 537 L39 537 L39 495 Z"/>
            </clipPath>
        </defs>
        <g fill="white" text-rendering="optimizeLegibility" font-family="'Segoe UI'" stroke-linejoin="round" stroke="white" stroke-width="0" stroke-miterlimit="0">
            <rect x="40" width="1340" height="486" y="10" clip-path="url(#clipPath1)" stroke="none"/>
        </g>
        <g fill="rgb(204,204,204)" text-rendering="optimizeLegibility" stroke-dasharray="3,3" font-family="'Segoe UI'" stroke-linecap="butt" stroke="rgb(204,204,204)">
            <line y2="496" fill="none" x1="40" clip-path="url(#clipPath1)" x2="1380" y1="496"/>
            <line y2="403" fill="none" x1="40" clip-path="url(#clipPath1)" x2="1380" y1="403"/>
            <line y2="311" fill="none" x1="40" clip-path="url(#clipPath1)" x2="1380" y1="311"/>
            <line y2="219" fill="none" x1="40" clip-path="url(#clipPath1)" x2="1380" y1="219"/>
            <line y2="127" fill="none" x1="40" clip-path="url(#clipPath1)" x2="1380" y1="127"/>
            <line y2="35" fill="none" x1="40" clip-path="url(#clipPath1)" x2="1380" y1="35"/>
            <rect x="188" y="219" clip-path="url(#clipPath1)" fill="rgb(44,160,44)" width="37" height="276" stroke="none"/>
            <rect x="188" y="219" clip-path="url(#clipPath1)" fill="none" width="37" stroke-dasharray="none" height="276" stroke="black"/>
            <rect x="375" y="90" clip-path="url(#clipPath1)" fill="rgb(44,160,44)" width="37" stroke-dasharray="none" height="405" stroke="none"/>
            <rect x="375" y="90" clip-path="url(#clipPath1)" fill="none" width="37" stroke-dasharray="none" height="405" stroke="black"/>
            <rect x="561" y="90" clip-path="url(#clipPath1)" fill="rgb(44,160,44)" width="37" stroke-dasharray="none" height="405" stroke="none"/>
            <rect x="561" y="90" clip-path="url(#clipPath1)" fill="none" width="37" stroke-dasharray="none" height="405" stroke="black"/>
            <rect x="747" y="90" clip-path="url(#clipPath1)" fill="rgb(44,160,44)" width="37" stroke-dasharray="none" height="405" stroke="none"/>
            <rect x="747" y="90" clip-path="url(#clipPath1)" fill="none" width="37" stroke-dasharray="none" height="405" stroke="black"/>
            <rect x="933" y="90" clip-path="url(#clipPath1)" fill="rgb(44,160,44)" width="37" stroke-dasharray="none" height="405" stroke="none"/>
            <rect x="933" y="90" clip-path="url(#clipPath1)" fill="none" width="37" stroke-dasharray="none" height="405" stroke="black"/>
            <rect x="1119" y="90" clip-path="url(#clipPath1)" fill="rgb(44,160,44)" width="37" stroke-dasharray="none" height="405" stroke="none"/>
            <rect x="1119" y="90" clip-path="url(#clipPath1)" fill="none" width="37" stroke-dasharray="none" height="405" stroke="black"/>
            <rect x="1305" y="348" clip-path="url(#clipPath1)" fill="rgb(44,160,44)" width="37" stroke-dasharray="none" height="147" stroke="none"/>
            <rect x="1305" y="348" clip-path="url(#clipPath1)" fill="none" width="37" stroke-dasharray="none" height="147" stroke="black"/>
            <rect x="133" y="201" clip-path="url(#clipPath1)" fill="rgb(255,127,14)" width="37" stroke-dasharray="none" height="294" stroke="none"/>
            <rect x="133" y="201" clip-path="url(#clipPath1)" fill="none" width="37" stroke-dasharray="none" height="294" stroke="black"/>
            <rect x="319" y="54" clip-path="url(#clipPath1)" fill="rgb(255,127,14)" width="37" stroke-dasharray="none" height="441" stroke="none"/>
            <rect x="319" y="54" clip-path="url(#clipPath1)" fill="none" width="37" stroke-dasharray="none" height="441" stroke="black"/>
            <rect x="505" y="54" clip-path="url(#clipPath1)" fill="rgb(255,127,14)" width="37" stroke-dasharray="none" height="441" stroke="none"/>
            <rect x="505" y="54" clip-path="url(#clipPath1)" fill="none" width="37" stroke-dasharray="none" height="441" stroke="black"/>
            <rect x="691" y="54" clip-path="url(#clipPath1)" fill="rgb(255,127,14)" width="37" stroke-dasharray="none" height="441" stroke="none"/>
            <rect x="691" y="54" clip-path="url(#clipPath1)" fill="none" width="37" stroke-dasharray="none" height="441" stroke="black"/>
            <rect x="877" y="54" clip-path="url(#clipPath1)" fill="rgb(255,127,14)" width="37" stroke-dasharray="none" height="441" stroke="none"/>
            <rect x="877" y="54" clip-path="url(#clipPath1)" fill="none" width="37" stroke-dasharray="none" height="441" stroke="black"/>
            <rect x="1063" y="54" clip-path="url(#clipPath1)" fill="rgb(255,127,14)" width="37" stroke-dasharray="none" height="441" stroke="none"/>
            <rect x="1063" y="54" clip-path="url(#clipPath1)" fill="none" width="37" stroke-dasharray="none" height="441" stroke="black"/>
            <rect x="1249" y="348" clip-path="url(#clipPath1)" fill="rgb(255,127,14)" width="37" stroke-dasharray="none" height="147" stroke="none"/>
            <rect x="1249" y="348" clip-path="url(#clipPath1)" fill="none" width="37" stroke-dasharray="none" height="147" stroke="black"/>
            <rect x="77" y="348" clip-path="url(#clipPath1)" fill="rgb(31,119,180)" width="37" stroke-dasharray="none" height="147" stroke="none"/>
            <rect x="77" y="348" clip-path="url(#clipPath1)" fill="none" width="37" stroke-dasharray="none" height="147" stroke="black"/>
            <rect x="263" y="348" clip-path="url(#clipPath1)" fill="rgb(31,119,180)" width="37" stroke-dasharray="none" height="147" stroke="none"/>
            <rect x="263" y="348" clip-path="url(#clipPath1)" fill="none" width="37" stroke-dasharray="none" height="147" stroke="black"/>
            <rect x="449" y="348" clip-path="url(#clipPath1)" fill="rgb(31,119,180)" width="37" stroke-dasharray="none" height="147" stroke="none"/>
            <rect x="449" y="348" clip-path="url(#clipPath1)" fill="none" width="37" stroke-dasharray="none" height="147" stroke="black"/>
            <rect x="635" y="348" clip-path="url(#clipPath1)" fill="rgb(31,119,180)" width="37" stroke-dasharray="none" height="147" stroke="none"/>
            <rect x="635" y="348" clip-path="url(#clipPath1)" fill="none" width="37" stroke-dasharray="none" height="147" stroke="black"/>
            <rect x="821" y="348" clip-path="url(#clipPath1)" fill="rgb(31,119,180)" width="37" stroke-dasharray="none" height="147" stroke="none"/>
            <rect x="821" y="348" clip-path="url(#clipPath1)" fill="none" width="37" stroke-dasharray="none" height="147" stroke="black"/>
            <rect x="1007" y="348" clip-path="url(#clipPath1)" fill="rgb(31,119,180)" width="37" stroke-dasharray="none" height="147" stroke="none"/>
            <rect x="1007" y="348" clip-path="url(#clipPath1)" fill="none" width="37" stroke-dasharray="none" height="147" stroke="black"/>
            <rect x="1193" y="348" clip-path="url(#clipPath1)" fill="rgb(31,119,180)" width="37" stroke-dasharray="none" height="147" stroke="none"/>
            <rect x="1193" y="348" clip-path="url(#clipPath1)" fill="none" width="37" stroke-dasharray="none" height="147" stroke="black"/>
            <rect x="40" y="10" clip-path="url(#clipPath2)" fill="none" width="1340" stroke-dasharray="none" height="486" stroke="black"/>
            <line clip-path="url(#clipPath2)" fill="none" x1="41" x2="1379" y1="496" y2="496" stroke-dasharray="none"/>
            <rect x="1241" y="15" clip-path="url(#clipPath3)" fill="white" width="134" stroke-dasharray="none" opacity="0.753" height="62" stroke="none"/>
            <polygon fill="rgb(31,119,180)" stroke-dasharray="none" clip-path="url(#clipPath3)" points=" 1250 23 1250 31 1258 31 1258 23" stroke="none"/>
        </g>
        <g text-rendering="optimizeLegibility" font-size="10px" font-family="'Arial'" stroke-linecap="butt">
            <text x="1263" xml:space="preserve" y="30" clip-path="url(#clipPath3)" stroke="none">tempoConvergencia</text>
            <polygon fill="rgb(255,127,14)" clip-path="url(#clipPath3)" points=" 1250 42 1250 50 1258 50 1258 42" stroke="none"/>
            <text x="1263" xml:space="preserve" y="49" clip-path="url(#clipPath3)" stroke="none">mensagensEnviadas</text>
            <polygon fill="rgb(44,160,44)" clip-path="url(#clipPath3)" points=" 1250 61 1250 69 1258 69 1258 61" stroke="none"/>
            <text x="1263" xml:space="preserve" y="68" clip-path="url(#clipPath3)" stroke="none">mensagensRecebidas</text>
            <line y2="496" fill="none" x1="38" clip-path="url(#clipPath2)" x2="38" y1="10"/>
            <line y2="496" fill="none" x1="1382" clip-path="url(#clipPath2)" x2="1382" y1="10"/>
            <line y2="496" fill="none" x1="34" clip-path="url(#clipPath2)" x2="38" y1="496"/>
            <line y2="496" fill="none" x1="1386" clip-path="url(#clipPath2)" x2="1382" y1="496"/>
            <text x="27" xml:space="preserve" y="500" clip-path="url(#clipPath2)" stroke="none">0</text>
            <text x="1389" xml:space="preserve" y="500" clip-path="url(#clipPath2)" stroke="none">0</text>
            <line y2="477" fill="none" x1="36" clip-path="url(#clipPath2)" x2="38" y1="477"/>
            <line y2="477" fill="none" x1="1384" clip-path="url(#clipPath2)" x2="1382" y1="477"/>
            <line y2="459" fill="none" x1="36" clip-path="url(#clipPath2)" x2="38" y1="459"/>
            <line y2="459" fill="none" x1="1384" clip-path="url(#clipPath2)" x2="1382" y1="459"/>
            <line y2="440" fill="none" x1="36" clip-path="url(#clipPath2)" x2="38" y1="440"/>
            <line y2="440" fill="none" x1="1384" clip-path="url(#clipPath2)" x2="1382" y1="440"/>
            <line y2="422" fill="none" x1="36" clip-path="url(#clipPath2)" x2="38" y1="422"/>
            <line y2="422" fill="none" x1="1384" clip-path="url(#clipPath2)" x2="1382" y1="422"/>
            <line y2="403" fill="none" x1="34" clip-path="url(#clipPath2)" x2="38" y1="403"/>
            <line y2="403" fill="none" x1="1386" clip-path="url(#clipPath2)" x2="1382" y1="403"/>
            <text x="27" xml:space="preserve" y="407" clip-path="url(#clipPath2)" stroke="none">5</text>
            <text x="1389" xml:space="preserve" y="407" clip-path="url(#clipPath2)" stroke="none">5</text>
            <line y2="385" fill="none" x1="36" clip-path="url(#clipPath2)" x2="38" y1="385"/>
            <line y2="385" fill="none" x1="1384" clip-path="url(#clipPath2)" x2="1382" y1="385"/>
            <line y2="367" fill="none" x1="36" clip-path="url(#clipPath2)" x2="38" y1="367"/>
            <line y2="367" fill="none" x1="1384" clip-path="url(#clipPath2)" x2="1382" y1="367"/>
            <line y2="348" fill="none" x1="36" clip-path="url(#clipPath2)" x2="38" y1="348"/>
            <line y2="348" fill="none" x1="1384" clip-path="url(#clipPath2)" x2="1382" y1="348"/>
            <line y2="330" fill="none" x1="36" clip-path="url(#clipPath2)" x2="38" y1="330"/>
            <line y2="330" fill="none" x1="1384" clip-path="url(#clipPath2)" x2="1382" y1="330"/>
            <line y2="311" fill="none" x1="34" clip-path="url(#clipPath2)" x2="38" y1="311"/>
            <line y2="311" fill="none" x1="1386" clip-path="url(#clipPath2)" x2="1382" y1="311"/>
            <text x="21" xml:space="preserve" y="315" clip-path="url(#clipPath2)" stroke="none">10</text>
            <text x="1389" xml:space="preserve" y="315" clip-path="url(#clipPath2)" stroke="none">10</text>
            <line y2="293" fill="none" x1="36" clip-path="url(#clipPath2)" x2="38" y1="293"/>
            <line y2="293" fill="none" x1="1384" clip-path="url(#clipPath2)" x2="1382" y1="293"/>
            <line y2="275" fill="none" x1="36" clip-path="url(#clipPath2)" x2="38" y1="275"/>
            <line y2="275" fill="none" x1="1384" clip-path="url(#clipPath2)" x2="1382" y1="275"/>
            <line y2="256" fill="none" x1="36" clip-path="url(#clipPath2)" x2="38" y1="256"/>
            <line y2="256" fill="none" x1="1384" clip-path="url(#clipPath2)" x2="1382" y1="256"/>
            <line y2="238" fill="none" x1="36" clip-path="url(#clipPath2)" x2="38" y1="238"/>
            <line y2="238" fill="none" x1="1384" clip-path="url(#clipPath2)" x2="1382" y1="238"/>
            <line y2="219" fill="none" x1="34" clip-path="url(#clipPath2)" x2="38" y1="219"/>
            <line y2="219" fill="none" x1="1386" clip-path="url(#clipPath2)" x2="1382" y1="219"/>
            <text x="21" xml:space="preserve" y="223" clip-path="url(#clipPath2)" stroke="none">15</text>
            <text x="1389" xml:space="preserve" y="223" clip-path="url(#clipPath2)" stroke="none">15</text>
            <line y2="201" fill="none" x1="36" clip-path="url(#clipPath2)" x2="38" y1="201"/>
            <line y2="201" fill="none" x1="1384" clip-path="url(#clipPath2)" x2="1382" y1="201"/>
            <line y2="183" fill="none" x1="36" clip-path="url(#clipPath2)" x2="38" y1="183"/>
            <line y2="183" fill="none" x1="1384" clip-path="url(#clipPath2)" x2="1382" y1="183"/>
            <line y2="164" fill="none" x1="36" clip-path="url(#clipPath2)" x2="38" y1="164"/>
            <line y2="164" fill="none" x1="1384" clip-path="url(#clipPath2)" x2="1382" y1="164"/>
            <line y2="146" fill="none" x1="36" clip-path="url(#clipPath2)" x2="38" y1="146"/>
            <line y2="146" fill="none" x1="1384" clip-path="url(#clipPath2)" x2="1382" y1="146"/>
            <line y2="127" fill="none" x1="34" clip-path="url(#clipPath2)" x2="38" y1="127"/>
            <line y2="127" fill="none" x1="1386" clip-path="url(#clipPath2)" x2="1382" y1="127"/>
            <text x="21" xml:space="preserve" y="131" clip-path="url(#clipPath2)" stroke="none">20</text>
            <text x="1389" xml:space="preserve" y="131" clip-path="url(#clipPath2)" stroke="none">20</text>
            <line y2="109" fill="none" x1="36" clip-path="url(#clipPath2)" x2="38" y1="109"/>
            <line y2="109" fill="none" x1="1384" clip-path="url(#clipPath2)" x2="1382" y1="109"/>
            <line y2="90" fill="none" x1="36" clip-path="url(#clipPath2)" x2="38" y1="90"/>
            <line y2="90" fill="none" x1="1384" clip-path="url(#clipPath2)" x2="1382" y1="90"/>
            <line y2="72" fill="none" x1="36" clip-path="url(#clipPath2)" x2="38" y1="72"/>
            <line y2="72" fill="none" x1="1384" clip-path="url(#clipPath2)" x2="1382" y1="72"/>
            <line y2="54" fill="none" x1="36" clip-path="url(#clipPath2)" x2="38" y1="54"/>
            <line y2="54" fill="none" x1="1384" clip-path="url(#clipPath2)" x2="1382" y1="54"/>
            <line y2="35" fill="none" x1="34" clip-path="url(#clipPath2)" x2="38" y1="35"/>
            <line y2="35" fill="none" x1="1386" clip-path="url(#clipPath2)" x2="1382" y1="35"/>
            <text x="21" xml:space="preserve" y="39" clip-path="url(#clipPath2)" stroke="none">25</text>
            <text x="1389" xml:space="preserve" y="39" clip-path="url(#clipPath2)" stroke="none">25</text>
            <line y2="17" fill="none" x1="36" clip-path="url(#clipPath2)" x2="38" y1="17"/>
            <line y2="17" fill="none" x1="1384" clip-path="url(#clipPath2)" x2="1382" y1="17"/>
            <line y2="500" fill="none" x1="77" clip-path="url(#clipPath4)" x2="225" y1="500"/>
            <line y2="500" fill="none" x1="263" clip-path="url(#clipPath4)" x2="412" y1="500"/>
            <line y2="500" fill="none" x1="449" clip-path="url(#clipPath4)" x2="598" y1="500"/>
            <line y2="500" fill="none" x1="635" clip-path="url(#clipPath4)" x2="784" y1="500"/>
            <line y2="500" fill="none" x1="821" clip-path="url(#clipPath4)" x2="970" y1="500"/>
            <line y2="500" fill="none" x1="1007" clip-path="url(#clipPath4)" x2="1156" y1="500"/>
            <line y2="500" fill="none" x1="1193" clip-path="url(#clipPath4)" x2="1342" y1="500"/>
            <text x="77" xml:space="preserve" y="511" clip-path="url(#clipPath4)" stroke="none">TopologiaIrregular.no[0]</text>
            <text x="263" xml:space="preserve" y="511" clip-path="url(#clipPath4)" stroke="none">TopologiaIrregular.no[1]</text>
            <text x="449" xml:space="preserve" y="511" clip-path="url(#clipPath4)" stroke="none">TopologiaIrregular.no[2]</text>
            <text x="635" xml:space="preserve" y="511" clip-path="url(#clipPath4)" stroke="none">TopologiaIrregular.no[3]</text>
            <text x="821" xml:space="preserve" y="511" clip-path="url(#clipPath4)" stroke="none">TopologiaIrregular.no[4]</text>
            <text x="1007" xml:space="preserve" y="511" clip-path="url(#clipPath4)" stroke="none">TopologiaIrregular.no[5]</text>
            <text x="1193" xml:space="preserve" y="511" clip-path="url(#clipPath4)" stroke="none">TopologiaIrregular.no[6]</text>
            <text x="693" xml:space="preserve" y="533" clip-path="url(#clipPath4)" stroke="none">module</text>
        </g>
    </g>
</svg>
