<?xml version="1.0" encoding="UTF-8"?><svg xmlns="http://www.w3.org/2000/svg" xmlns:xlink="http://www.w3.org/1999/xlink" stroke-dasharray="none" shape-rendering="auto" font-family="'Dialog'" width="1406" text-rendering="auto" fill-opacity="1" contentScriptType="text/ecmascript" color-interpolation="auto" color-rendering="auto" preserveAspectRatio="xMidYMid meet" font-size="12px" fill="black" stroke="black" image-rendering="auto" stroke-miterlimit="10" zoomAndPan="magnify" version="1.0" stroke-linecap="square" stroke-linejoin="miter" contentStyleType="text/css" font-style="normal" height="536" stroke-width="1" stroke-dashoffset="0" font-weight="normal" stroke-opacity="1">
    <!--Generated by the Batik Graphics2D SVG Generator-->
    <defs id="genericDefs"/>
    <g>
        <defs id="defs1">
            <clipPath clipPathUnits="userSpaceOnUse" id="clipPath1">
                <path d="M45 9 L1375 9 L1375 497 L45 497 L45 9 Z"/>
            </clipPath>
            <clipPath clipPathUnits="userSpaceOnUse" id="clipPath2">
                <path d="M-1 -1 L1407 -1 L1407 537 L-1 537 L-1 -1 Z"/>
            </clipPath>
            <clipPath clipPathUnits="userSpaceOnUse" id="clipPath3">
                <path d="M1212 14 L1371 14 L1371 98 L1212 98 L1212 14 Z"/>
            </clipPath>
            <clipPath clipPathUnits="userSpaceOnUse" id="clipPath4">
                <path d="M45 495 L1375 495 L1375 537 L45 537 L45 495 Z"/>
            </clipPath>
        </defs>
        <g fill="white" text-rendering="optimizeLegibility" font-family="'Segoe UI'" stroke-linejoin="round" stroke="white" stroke-width="0" stroke-miterlimit="0">
            <rect x="46" width="1328" height="486" y="10" clip-path="url(#clipPath1)" stroke="none"/>
        </g>
        <g fill="rgb(204,204,204)" text-rendering="optimizeLegibility" stroke-dasharray="3,3" font-family="'Segoe UI'" stroke-linecap="butt" stroke="rgb(204,204,204)">
            <line y2="496" fill="none" x1="46" clip-path="url(#clipPath1)" x2="1374" y1="496"/>
            <line y2="414" fill="none" x1="46" clip-path="url(#clipPath1)" x2="1374" y1="414"/>
            <line y2="332" fill="none" x1="46" clip-path="url(#clipPath1)" x2="1374" y1="332"/>
            <line y2="250" fill="none" x1="46" clip-path="url(#clipPath1)" x2="1374" y1="250"/>
            <line y2="168" fill="none" x1="46" clip-path="url(#clipPath1)" x2="1374" y1="168"/>
            <line y2="86" fill="none" x1="46" clip-path="url(#clipPath1)" x2="1374" y1="86"/>
            <rect x="195" y="487" clip-path="url(#clipPath1)" fill="rgb(214,39,40)" width="27" height="8" stroke="none"/>
            <rect x="195" y="487" clip-path="url(#clipPath1)" fill="none" width="27" stroke-dasharray="none" height="8" stroke="black"/>
            <rect x="383" y="471" clip-path="url(#clipPath1)" fill="rgb(214,39,40)" width="27" stroke-dasharray="none" height="24" stroke="none"/>
            <rect x="383" y="471" clip-path="url(#clipPath1)" fill="none" width="27" stroke-dasharray="none" height="24" stroke="black"/>
            <rect x="570" y="471" clip-path="url(#clipPath1)" fill="rgb(214,39,40)" width="27" stroke-dasharray="none" height="24" stroke="none"/>
            <rect x="570" y="471" clip-path="url(#clipPath1)" fill="none" width="27" stroke-dasharray="none" height="24" stroke="black"/>
            <rect x="757" y="471" clip-path="url(#clipPath1)" fill="rgb(214,39,40)" width="27" stroke-dasharray="none" height="24" stroke="none"/>
            <rect x="757" y="471" clip-path="url(#clipPath1)" fill="none" width="27" stroke-dasharray="none" height="24" stroke="black"/>
            <rect x="944" y="471" clip-path="url(#clipPath1)" fill="rgb(214,39,40)" width="27" stroke-dasharray="none" height="24" stroke="none"/>
            <rect x="944" y="471" clip-path="url(#clipPath1)" fill="none" width="27" stroke-dasharray="none" height="24" stroke="black"/>
            <rect x="1132" y="471" clip-path="url(#clipPath1)" fill="rgb(214,39,40)" width="27" stroke-dasharray="none" height="24" stroke="none"/>
            <rect x="1132" y="471" clip-path="url(#clipPath1)" fill="none" width="27" stroke-dasharray="none" height="24" stroke="black"/>
            <rect x="1319" y="471" clip-path="url(#clipPath1)" fill="rgb(214,39,40)" width="27" stroke-dasharray="none" height="24" stroke="none"/>
            <rect x="1319" y="471" clip-path="url(#clipPath1)" fill="none" width="27" stroke-dasharray="none" height="24" stroke="black"/>
            <rect x="154" y="54" clip-path="url(#clipPath1)" fill="rgb(44,160,44)" width="27" stroke-dasharray="none" height="441" stroke="none"/>
            <rect x="154" y="54" clip-path="url(#clipPath1)" fill="none" width="27" stroke-dasharray="none" height="441" stroke="black"/>
            <rect x="342" y="422" clip-path="url(#clipPath1)" fill="rgb(44,160,44)" width="27" stroke-dasharray="none" height="73" stroke="none"/>
            <rect x="342" y="422" clip-path="url(#clipPath1)" fill="none" width="27" stroke-dasharray="none" height="73" stroke="black"/>
            <rect x="529" y="422" clip-path="url(#clipPath1)" fill="rgb(44,160,44)" width="27" stroke-dasharray="none" height="73" stroke="none"/>
            <rect x="529" y="422" clip-path="url(#clipPath1)" fill="none" width="27" stroke-dasharray="none" height="73" stroke="black"/>
            <rect x="716" y="422" clip-path="url(#clipPath1)" fill="rgb(44,160,44)" width="27" stroke-dasharray="none" height="73" stroke="none"/>
            <rect x="716" y="422" clip-path="url(#clipPath1)" fill="none" width="27" stroke-dasharray="none" height="73" stroke="black"/>
            <rect x="904" y="422" clip-path="url(#clipPath1)" fill="rgb(44,160,44)" width="27" stroke-dasharray="none" height="73" stroke="none"/>
            <rect x="904" y="422" clip-path="url(#clipPath1)" fill="none" width="27" stroke-dasharray="none" height="73" stroke="black"/>
            <rect x="1091" y="422" clip-path="url(#clipPath1)" fill="rgb(44,160,44)" width="27" stroke-dasharray="none" height="73" stroke="none"/>
            <rect x="1091" y="422" clip-path="url(#clipPath1)" fill="none" width="27" stroke-dasharray="none" height="73" stroke="black"/>
            <rect x="1278" y="422" clip-path="url(#clipPath1)" fill="rgb(44,160,44)" width="27" stroke-dasharray="none" height="73" stroke="none"/>
            <rect x="1278" y="422" clip-path="url(#clipPath1)" fill="none" width="27" stroke-dasharray="none" height="73" stroke="black"/>
            <rect x="114" y="225" clip-path="url(#clipPath1)" fill="rgb(255,127,14)" width="27" stroke-dasharray="none" height="270" stroke="none"/>
            <rect x="114" y="225" clip-path="url(#clipPath1)" fill="none" width="27" stroke-dasharray="none" height="270" stroke="black"/>
            <rect x="301" y="467" clip-path="url(#clipPath1)" fill="rgb(255,127,14)" width="27" stroke-dasharray="none" height="28" stroke="none"/>
            <rect x="301" y="467" clip-path="url(#clipPath1)" fill="none" width="27" stroke-dasharray="none" height="28" stroke="black"/>
            <rect x="488" y="467" clip-path="url(#clipPath1)" fill="rgb(255,127,14)" width="27" stroke-dasharray="none" height="28" stroke="none"/>
            <rect x="488" y="467" clip-path="url(#clipPath1)" fill="none" width="27" stroke-dasharray="none" height="28" stroke="black"/>
            <rect x="675" y="467" clip-path="url(#clipPath1)" fill="rgb(255,127,14)" width="27" stroke-dasharray="none" height="28" stroke="none"/>
            <rect x="675" y="467" clip-path="url(#clipPath1)" fill="none" width="27" stroke-dasharray="none" height="28" stroke="black"/>
            <rect x="863" y="467" clip-path="url(#clipPath1)" fill="rgb(255,127,14)" width="27" stroke-dasharray="none" height="28" stroke="none"/>
            <rect x="863" y="467" clip-path="url(#clipPath1)" fill="none" width="27" stroke-dasharray="none" height="28" stroke="black"/>
            <rect x="1050" y="467" clip-path="url(#clipPath1)" fill="rgb(255,127,14)" width="27" stroke-dasharray="none" height="28" stroke="none"/>
            <rect x="1050" y="467" clip-path="url(#clipPath1)" fill="none" width="27" stroke-dasharray="none" height="28" stroke="black"/>
            <rect x="1237" y="467" clip-path="url(#clipPath1)" fill="rgb(255,127,14)" width="27" stroke-dasharray="none" height="28" stroke="none"/>
            <rect x="1237" y="467" clip-path="url(#clipPath1)" fill="none" width="27" stroke-dasharray="none" height="28" stroke="black"/>
            <rect x="73" y="324" clip-path="url(#clipPath1)" fill="rgb(31,119,180)" width="27" stroke-dasharray="none" height="171" stroke="none"/>
            <rect x="73" y="324" clip-path="url(#clipPath1)" fill="none" width="27" stroke-dasharray="none" height="171" stroke="black"/>
            <rect x="260" y="451" clip-path="url(#clipPath1)" fill="rgb(31,119,180)" width="27" stroke-dasharray="none" height="45" stroke="none"/>
            <rect x="260" y="451" clip-path="url(#clipPath1)" fill="none" width="27" stroke-dasharray="none" height="45" stroke="black"/>
            <rect x="447" y="451" clip-path="url(#clipPath1)" fill="rgb(31,119,180)" width="27" stroke-dasharray="none" height="45" stroke="none"/>
            <rect x="447" y="451" clip-path="url(#clipPath1)" fill="none" width="27" stroke-dasharray="none" height="45" stroke="black"/>
            <rect x="635" y="451" clip-path="url(#clipPath1)" fill="rgb(31,119,180)" width="27" stroke-dasharray="none" height="45" stroke="none"/>
            <rect x="635" y="451" clip-path="url(#clipPath1)" fill="none" width="27" stroke-dasharray="none" height="45" stroke="black"/>
            <rect x="822" y="451" clip-path="url(#clipPath1)" fill="rgb(31,119,180)" width="27" stroke-dasharray="none" height="45" stroke="none"/>
            <rect x="822" y="451" clip-path="url(#clipPath1)" fill="none" width="27" stroke-dasharray="none" height="45" stroke="black"/>
            <rect x="1009" y="451" clip-path="url(#clipPath1)" fill="rgb(31,119,180)" width="27" stroke-dasharray="none" height="45" stroke="none"/>
            <rect x="1009" y="451" clip-path="url(#clipPath1)" fill="none" width="27" stroke-dasharray="none" height="45" stroke="black"/>
            <rect x="1196" y="451" clip-path="url(#clipPath1)" fill="rgb(31,119,180)" width="27" stroke-dasharray="none" height="45" stroke="none"/>
            <rect x="1196" y="451" clip-path="url(#clipPath1)" fill="none" width="27" stroke-dasharray="none" height="45" stroke="black"/>
            <rect x="46" y="10" clip-path="url(#clipPath2)" fill="none" width="1328" stroke-dasharray="none" height="486" stroke="black"/>
            <line clip-path="url(#clipPath2)" fill="none" x1="47" x2="1373" y1="496" y2="496" stroke-dasharray="none"/>
            <rect x="1213" y="15" clip-path="url(#clipPath3)" fill="white" width="156" stroke-dasharray="none" opacity="0.753" height="81" stroke="none"/>
            <polygon fill="rgb(31,119,180)" stroke-dasharray="none" clip-path="url(#clipPath3)" points=" 1222 23 1222 31 1230 31 1230 23" stroke="none"/>
        </g>
        <g text-rendering="optimizeLegibility" font-size="10px" font-family="'Arial'" stroke-linecap="butt">
            <text x="1235" xml:space="preserve" y="30" clip-path="url(#clipPath3)" stroke="none">mensagensEnviadasFinal</text>
            <polygon fill="rgb(255,127,14)" clip-path="url(#clipPath3)" points=" 1222 42 1222 50 1230 50 1230 42" stroke="none"/>
            <text x="1235" xml:space="preserve" y="49" clip-path="url(#clipPath3)" stroke="none">mensagensRecebidasFinal</text>
            <polygon fill="rgb(44,160,44)" clip-path="url(#clipPath3)" points=" 1222 61 1222 69 1230 69 1230 61" stroke="none"/>
            <text x="1235" xml:space="preserve" y="68" clip-path="url(#clipPath3)" stroke="none">mensagensTrocadas</text>
            <polygon fill="rgb(214,39,40)" clip-path="url(#clipPath3)" points=" 1222 80 1222 88 1230 88 1230 80" stroke="none"/>
            <text x="1235" xml:space="preserve" y="87" clip-path="url(#clipPath3)" stroke="none">tempoConvergenciaFinal</text>
            <line y2="496" fill="none" x1="44" clip-path="url(#clipPath2)" x2="44" y1="10"/>
            <line y2="496" fill="none" x1="1376" clip-path="url(#clipPath2)" x2="1376" y1="10"/>
            <line y2="496" fill="none" x1="40" clip-path="url(#clipPath2)" x2="44" y1="496"/>
            <line y2="496" fill="none" x1="1380" clip-path="url(#clipPath2)" x2="1376" y1="496"/>
            <text x="33" xml:space="preserve" y="500" clip-path="url(#clipPath2)" stroke="none">0</text>
            <text x="1383" xml:space="preserve" y="500" clip-path="url(#clipPath2)" stroke="none">0</text>
            <line y2="455" fill="none" x1="42" clip-path="url(#clipPath2)" x2="44" y1="455"/>
            <line y2="455" fill="none" x1="1378" clip-path="url(#clipPath2)" x2="1376" y1="455"/>
            <line y2="414" fill="none" x1="40" clip-path="url(#clipPath2)" x2="44" y1="414"/>
            <line y2="414" fill="none" x1="1380" clip-path="url(#clipPath2)" x2="1376" y1="414"/>
            <text x="27" xml:space="preserve" y="418" clip-path="url(#clipPath2)" stroke="none">20</text>
            <text x="1383" xml:space="preserve" y="418" clip-path="url(#clipPath2)" stroke="none">20</text>
            <line y2="373" fill="none" x1="42" clip-path="url(#clipPath2)" x2="44" y1="373"/>
            <line y2="373" fill="none" x1="1378" clip-path="url(#clipPath2)" x2="1376" y1="373"/>
            <line y2="332" fill="none" x1="40" clip-path="url(#clipPath2)" x2="44" y1="332"/>
            <line y2="332" fill="none" x1="1380" clip-path="url(#clipPath2)" x2="1376" y1="332"/>
            <text x="27" xml:space="preserve" y="336" clip-path="url(#clipPath2)" stroke="none">40</text>
            <text x="1383" xml:space="preserve" y="336" clip-path="url(#clipPath2)" stroke="none">40</text>
            <line y2="291" fill="none" x1="42" clip-path="url(#clipPath2)" x2="44" y1="291"/>
            <line y2="291" fill="none" x1="1378" clip-path="url(#clipPath2)" x2="1376" y1="291"/>
            <line y2="250" fill="none" x1="40" clip-path="url(#clipPath2)" x2="44" y1="250"/>
            <line y2="250" fill="none" x1="1380" clip-path="url(#clipPath2)" x2="1376" y1="250"/>
            <text x="27" xml:space="preserve" y="254" clip-path="url(#clipPath2)" stroke="none">60</text>
            <text x="1383" xml:space="preserve" y="254" clip-path="url(#clipPath2)" stroke="none">60</text>
            <line y2="209" fill="none" x1="42" clip-path="url(#clipPath2)" x2="44" y1="209"/>
            <line y2="209" fill="none" x1="1378" clip-path="url(#clipPath2)" x2="1376" y1="209"/>
            <line y2="168" fill="none" x1="40" clip-path="url(#clipPath2)" x2="44" y1="168"/>
            <line y2="168" fill="none" x1="1380" clip-path="url(#clipPath2)" x2="1376" y1="168"/>
            <text x="27" xml:space="preserve" y="172" clip-path="url(#clipPath2)" stroke="none">80</text>
            <text x="1383" xml:space="preserve" y="172" clip-path="url(#clipPath2)" stroke="none">80</text>
            <line y2="127" fill="none" x1="42" clip-path="url(#clipPath2)" x2="44" y1="127"/>
            <line y2="127" fill="none" x1="1378" clip-path="url(#clipPath2)" x2="1376" y1="127"/>
            <line y2="86" fill="none" x1="40" clip-path="url(#clipPath2)" x2="44" y1="86"/>
            <line y2="86" fill="none" x1="1380" clip-path="url(#clipPath2)" x2="1376" y1="86"/>
            <text x="22" xml:space="preserve" y="90" clip-path="url(#clipPath2)" stroke="none">100</text>
            <text x="1383" xml:space="preserve" y="90" clip-path="url(#clipPath2)" stroke="none">100</text>
            <line y2="45" fill="none" x1="42" clip-path="url(#clipPath2)" x2="44" y1="45"/>
            <line y2="45" fill="none" x1="1378" clip-path="url(#clipPath2)" x2="1376" y1="45"/>
            <line y2="500" fill="none" x1="73" clip-path="url(#clipPath4)" x2="222" y1="500"/>
            <line y2="500" fill="none" x1="260" clip-path="url(#clipPath4)" x2="410" y1="500"/>
            <line y2="500" fill="none" x1="447" clip-path="url(#clipPath4)" x2="597" y1="500"/>
            <line y2="500" fill="none" x1="635" clip-path="url(#clipPath4)" x2="784" y1="500"/>
            <line y2="500" fill="none" x1="822" clip-path="url(#clipPath4)" x2="971" y1="500"/>
            <line y2="500" fill="none" x1="1009" clip-path="url(#clipPath4)" x2="1159" y1="500"/>
            <line y2="500" fill="none" x1="1196" clip-path="url(#clipPath4)" x2="1346" y1="500"/>
            <text x="73" xml:space="preserve" y="511" clip-path="url(#clipPath4)" stroke="none">TopologiaEstrela.no[0]</text>
            <text x="260" xml:space="preserve" y="511" clip-path="url(#clipPath4)" stroke="none">TopologiaEstrela.no[1]</text>
            <text x="447" xml:space="preserve" y="511" clip-path="url(#clipPath4)" stroke="none">TopologiaEstrela.no[2]</text>
            <text x="635" xml:space="preserve" y="511" clip-path="url(#clipPath4)" stroke="none">TopologiaEstrela.no[3]</text>
            <text x="822" xml:space="preserve" y="511" clip-path="url(#clipPath4)" stroke="none">TopologiaEstrela.no[4]</text>
            <text x="1009" xml:space="preserve" y="511" clip-path="url(#clipPath4)" stroke="none">TopologiaEstrela.no[5]</text>
            <text x="1196" xml:space="preserve" y="511" clip-path="url(#clipPath4)" stroke="none">TopologiaEstrela.no[6]</text>
            <text x="693" xml:space="preserve" y="533" clip-path="url(#clipPath4)" stroke="none">module</text>
        </g>
    </g>
</svg>
