<?xml version="1.0" encoding="UTF-8"?><svg xmlns="http://www.w3.org/2000/svg" xmlns:xlink="http://www.w3.org/1999/xlink" stroke-dasharray="none" shape-rendering="auto" font-family="'Dialog'" width="1406" text-rendering="auto" fill-opacity="1" contentScriptType="text/ecmascript" color-interpolation="auto" color-rendering="auto" preserveAspectRatio="xMidYMid meet" font-size="12px" fill="black" stroke="black" image-rendering="auto" stroke-miterlimit="10" zoomAndPan="magnify" version="1.0" stroke-linecap="square" stroke-linejoin="miter" contentStyleType="text/css" font-style="normal" height="536" stroke-width="1" stroke-dashoffset="0" font-weight="normal" stroke-opacity="1">
    <!--Generated by the Batik Graphics2D SVG Generator-->
    <defs id="genericDefs"/>
    <g>
        <defs id="defs1">
            <clipPath clipPathUnits="userSpaceOnUse" id="clipPath1">
                <path d="M39 9 L1381 9 L1381 497 L39 497 L39 9 Z"/>
            </clipPath>
            <clipPath clipPathUnits="userSpaceOnUse" id="clipPath2">
                <path d="M-1 -1 L1407 -1 L1407 537 L-1 537 L-1 -1 Z"/>
            </clipPath>
            <clipPath clipPathUnits="userSpaceOnUse" id="clipPath3">
                <path d="M1218 14 L1377 14 L1377 98 L1218 98 L1218 14 Z"/>
            </clipPath>
            <clipPath clipPathUnits="userSpaceOnUse" id="clipPath4">
                <path d="M39 495 L1381 495 L1381 537 L39 537 L39 495 Z"/>
            </clipPath>
        </defs>
        <g fill="white" text-rendering="optimizeLegibility" font-family="'Segoe UI'" stroke-linejoin="round" stroke="white" stroke-width="0" stroke-miterlimit="0">
            <rect x="40" width="1340" height="486" y="10" clip-path="url(#clipPath1)" stroke="none"/>
        </g>
        <g fill="rgb(204,204,204)" text-rendering="optimizeLegibility" stroke-dasharray="3,3" font-family="'Segoe UI'" stroke-linecap="butt" stroke="rgb(204,204,204)">
            <line y2="496" fill="none" x1="40" clip-path="url(#clipPath1)" x2="1380" y1="496"/>
            <line y2="437" fill="none" x1="40" clip-path="url(#clipPath1)" x2="1380" y1="437"/>
            <line y2="378" fill="none" x1="40" clip-path="url(#clipPath1)" x2="1380" y1="378"/>
            <line y2="319" fill="none" x1="40" clip-path="url(#clipPath1)" x2="1380" y1="319"/>
            <line y2="260" fill="none" x1="40" clip-path="url(#clipPath1)" x2="1380" y1="260"/>
            <line y2="201" fill="none" x1="40" clip-path="url(#clipPath1)" x2="1380" y1="201"/>
            <line y2="142" fill="none" x1="40" clip-path="url(#clipPath1)" x2="1380" y1="142"/>
            <line y2="83" fill="none" x1="40" clip-path="url(#clipPath1)" x2="1380" y1="83"/>
            <line y2="24" fill="none" x1="40" clip-path="url(#clipPath1)" x2="1380" y1="24"/>
            <rect x="191" y="460" clip-path="url(#clipPath1)" fill="rgb(214,39,40)" width="27" height="35" stroke="none"/>
            <rect x="191" y="460" clip-path="url(#clipPath1)" fill="none" width="27" stroke-dasharray="none" height="35" stroke="black"/>
            <rect x="380" y="472" clip-path="url(#clipPath1)" fill="rgb(214,39,40)" width="27" stroke-dasharray="none" height="23" stroke="none"/>
            <rect x="380" y="472" clip-path="url(#clipPath1)" fill="none" width="27" stroke-dasharray="none" height="23" stroke="black"/>
            <rect x="569" y="478" clip-path="url(#clipPath1)" fill="rgb(214,39,40)" width="27" stroke-dasharray="none" height="17" stroke="none"/>
            <rect x="569" y="478" clip-path="url(#clipPath1)" fill="none" width="27" stroke-dasharray="none" height="17" stroke="black"/>
            <rect x="758" y="472" clip-path="url(#clipPath1)" fill="rgb(214,39,40)" width="27" stroke-dasharray="none" height="23" stroke="none"/>
            <rect x="758" y="472" clip-path="url(#clipPath1)" fill="none" width="27" stroke-dasharray="none" height="23" stroke="black"/>
            <rect x="947" y="472" clip-path="url(#clipPath1)" fill="rgb(214,39,40)" width="27" stroke-dasharray="none" height="23" stroke="none"/>
            <rect x="947" y="472" clip-path="url(#clipPath1)" fill="none" width="27" stroke-dasharray="none" height="23" stroke="black"/>
            <rect x="1136" y="472" clip-path="url(#clipPath1)" fill="rgb(214,39,40)" width="27" stroke-dasharray="none" height="23" stroke="none"/>
            <rect x="1136" y="472" clip-path="url(#clipPath1)" fill="none" width="27" stroke-dasharray="none" height="23" stroke="black"/>
            <rect x="1325" y="460" clip-path="url(#clipPath1)" fill="rgb(214,39,40)" width="27" stroke-dasharray="none" height="35" stroke="none"/>
            <rect x="1325" y="460" clip-path="url(#clipPath1)" fill="none" width="27" stroke-dasharray="none" height="35" stroke="black"/>
            <rect x="149" y="260" clip-path="url(#clipPath1)" fill="rgb(44,160,44)" width="27" stroke-dasharray="none" height="235" stroke="none"/>
            <rect x="149" y="260" clip-path="url(#clipPath1)" fill="none" width="27" stroke-dasharray="none" height="235" stroke="black"/>
            <rect x="338" y="172" clip-path="url(#clipPath1)" fill="rgb(44,160,44)" width="27" stroke-dasharray="none" height="324" stroke="none"/>
            <rect x="338" y="172" clip-path="url(#clipPath1)" fill="none" width="27" stroke-dasharray="none" height="324" stroke="black"/>
            <rect x="527" y="195" clip-path="url(#clipPath1)" fill="rgb(44,160,44)" width="27" stroke-dasharray="none" height="300" stroke="none"/>
            <rect x="527" y="195" clip-path="url(#clipPath1)" fill="none" width="27" stroke-dasharray="none" height="300" stroke="black"/>
            <rect x="716" y="54" clip-path="url(#clipPath1)" fill="rgb(44,160,44)" width="27" stroke-dasharray="none" height="441" stroke="none"/>
            <rect x="716" y="54" clip-path="url(#clipPath1)" fill="none" width="27" stroke-dasharray="none" height="441" stroke="black"/>
            <rect x="905" y="177" clip-path="url(#clipPath1)" fill="rgb(44,160,44)" width="27" stroke-dasharray="none" height="318" stroke="none"/>
            <rect x="905" y="177" clip-path="url(#clipPath1)" fill="none" width="27" stroke-dasharray="none" height="318" stroke="black"/>
            <rect x="1094" y="172" clip-path="url(#clipPath1)" fill="rgb(44,160,44)" width="27" stroke-dasharray="none" height="324" stroke="none"/>
            <rect x="1094" y="172" clip-path="url(#clipPath1)" fill="none" width="27" stroke-dasharray="none" height="324" stroke="black"/>
            <rect x="1283" y="260" clip-path="url(#clipPath1)" fill="rgb(44,160,44)" width="27" stroke-dasharray="none" height="235" stroke="none"/>
            <rect x="1283" y="260" clip-path="url(#clipPath1)" fill="none" width="27" stroke-dasharray="none" height="235" stroke="black"/>
            <rect x="108" y="389" clip-path="url(#clipPath1)" fill="rgb(255,127,14)" width="27" stroke-dasharray="none" height="106" stroke="none"/>
            <rect x="108" y="389" clip-path="url(#clipPath1)" fill="none" width="27" stroke-dasharray="none" height="106" stroke="black"/>
            <rect x="297" y="331" clip-path="url(#clipPath1)" fill="rgb(255,127,14)" width="27" stroke-dasharray="none" height="164" stroke="none"/>
            <rect x="297" y="331" clip-path="url(#clipPath1)" fill="none" width="27" stroke-dasharray="none" height="164" stroke="black"/>
            <rect x="486" y="336" clip-path="url(#clipPath1)" fill="rgb(255,127,14)" width="27" stroke-dasharray="none" height="159" stroke="none"/>
            <rect x="486" y="336" clip-path="url(#clipPath1)" fill="none" width="27" stroke-dasharray="none" height="159" stroke="black"/>
            <rect x="675" y="266" clip-path="url(#clipPath1)" fill="rgb(255,127,14)" width="27" stroke-dasharray="none" height="229" stroke="none"/>
            <rect x="675" y="266" clip-path="url(#clipPath1)" fill="none" width="27" stroke-dasharray="none" height="229" stroke="black"/>
            <rect x="864" y="336" clip-path="url(#clipPath1)" fill="rgb(255,127,14)" width="27" stroke-dasharray="none" height="159" stroke="none"/>
            <rect x="864" y="336" clip-path="url(#clipPath1)" fill="none" width="27" stroke-dasharray="none" height="159" stroke="black"/>
            <rect x="1053" y="331" clip-path="url(#clipPath1)" fill="rgb(255,127,14)" width="27" stroke-dasharray="none" height="164" stroke="none"/>
            <rect x="1053" y="331" clip-path="url(#clipPath1)" fill="none" width="27" stroke-dasharray="none" height="164" stroke="black"/>
            <rect x="1242" y="389" clip-path="url(#clipPath1)" fill="rgb(255,127,14)" width="27" stroke-dasharray="none" height="106" stroke="none"/>
            <rect x="1242" y="389" clip-path="url(#clipPath1)" fill="none" width="27" stroke-dasharray="none" height="106" stroke="black"/>
            <rect x="67" y="366" clip-path="url(#clipPath1)" fill="rgb(31,119,180)" width="27" stroke-dasharray="none" height="129" stroke="none"/>
            <rect x="67" y="366" clip-path="url(#clipPath1)" fill="none" width="27" stroke-dasharray="none" height="129" stroke="black"/>
            <rect x="256" y="336" clip-path="url(#clipPath1)" fill="rgb(31,119,180)" width="27" stroke-dasharray="none" height="159" stroke="none"/>
            <rect x="256" y="336" clip-path="url(#clipPath1)" fill="none" width="27" stroke-dasharray="none" height="159" stroke="black"/>
            <rect x="445" y="354" clip-path="url(#clipPath1)" fill="rgb(31,119,180)" width="27" stroke-dasharray="none" height="141" stroke="none"/>
            <rect x="445" y="354" clip-path="url(#clipPath1)" fill="none" width="27" stroke-dasharray="none" height="141" stroke="black"/>
            <rect x="634" y="283" clip-path="url(#clipPath1)" fill="rgb(31,119,180)" width="27" stroke-dasharray="none" height="212" stroke="none"/>
            <rect x="634" y="283" clip-path="url(#clipPath1)" fill="none" width="27" stroke-dasharray="none" height="212" stroke="black"/>
            <rect x="823" y="336" clip-path="url(#clipPath1)" fill="rgb(31,119,180)" width="27" stroke-dasharray="none" height="159" stroke="none"/>
            <rect x="823" y="336" clip-path="url(#clipPath1)" fill="none" width="27" stroke-dasharray="none" height="159" stroke="black"/>
            <rect x="1012" y="336" clip-path="url(#clipPath1)" fill="rgb(31,119,180)" width="27" stroke-dasharray="none" height="159" stroke="none"/>
            <rect x="1012" y="336" clip-path="url(#clipPath1)" fill="none" width="27" stroke-dasharray="none" height="159" stroke="black"/>
            <rect x="1201" y="366" clip-path="url(#clipPath1)" fill="rgb(31,119,180)" width="27" stroke-dasharray="none" height="129" stroke="none"/>
            <rect x="1201" y="366" clip-path="url(#clipPath1)" fill="none" width="27" stroke-dasharray="none" height="129" stroke="black"/>
            <rect x="40" y="10" clip-path="url(#clipPath2)" fill="none" width="1340" stroke-dasharray="none" height="486" stroke="black"/>
            <line clip-path="url(#clipPath2)" fill="none" x1="41" x2="1379" y1="496" y2="496" stroke-dasharray="none"/>
            <rect x="1219" y="15" clip-path="url(#clipPath3)" fill="white" width="156" stroke-dasharray="none" opacity="0.753" height="81" stroke="none"/>
            <polygon fill="rgb(31,119,180)" stroke-dasharray="none" clip-path="url(#clipPath3)" points=" 1228 23 1228 31 1236 31 1236 23" stroke="none"/>
        </g>
        <g text-rendering="optimizeLegibility" font-size="10px" font-family="'Arial'" stroke-linecap="butt">
            <text x="1241" xml:space="preserve" y="30" clip-path="url(#clipPath3)" stroke="none">mensagensEnviadasFinal</text>
            <polygon fill="rgb(255,127,14)" clip-path="url(#clipPath3)" points=" 1228 42 1228 50 1236 50 1236 42" stroke="none"/>
            <text x="1241" xml:space="preserve" y="49" clip-path="url(#clipPath3)" stroke="none">mensagensRecebidasFinal</text>
            <polygon fill="rgb(44,160,44)" clip-path="url(#clipPath3)" points=" 1228 61 1228 69 1236 69 1236 61" stroke="none"/>
            <text x="1241" xml:space="preserve" y="68" clip-path="url(#clipPath3)" stroke="none">mensagensTrocadas</text>
            <polygon fill="rgb(214,39,40)" clip-path="url(#clipPath3)" points=" 1228 80 1228 88 1236 88 1236 80" stroke="none"/>
            <text x="1241" xml:space="preserve" y="87" clip-path="url(#clipPath3)" stroke="none">tempoConvergenciaFinal</text>
            <line y2="496" fill="none" x1="38" clip-path="url(#clipPath2)" x2="38" y1="10"/>
            <line y2="496" fill="none" x1="1382" clip-path="url(#clipPath2)" x2="1382" y1="10"/>
            <line y2="496" fill="none" x1="34" clip-path="url(#clipPath2)" x2="38" y1="496"/>
            <line y2="496" fill="none" x1="1386" clip-path="url(#clipPath2)" x2="1382" y1="496"/>
            <text x="27" xml:space="preserve" y="500" clip-path="url(#clipPath2)" stroke="none">0</text>
            <text x="1389" xml:space="preserve" y="500" clip-path="url(#clipPath2)" stroke="none">0</text>
            <line y2="484" fill="none" x1="36" clip-path="url(#clipPath2)" x2="38" y1="484"/>
            <line y2="484" fill="none" x1="1384" clip-path="url(#clipPath2)" x2="1382" y1="484"/>
            <line y2="472" fill="none" x1="36" clip-path="url(#clipPath2)" x2="38" y1="472"/>
            <line y2="472" fill="none" x1="1384" clip-path="url(#clipPath2)" x2="1382" y1="472"/>
            <line y2="460" fill="none" x1="36" clip-path="url(#clipPath2)" x2="38" y1="460"/>
            <line y2="460" fill="none" x1="1384" clip-path="url(#clipPath2)" x2="1382" y1="460"/>
            <line y2="448" fill="none" x1="36" clip-path="url(#clipPath2)" x2="38" y1="448"/>
            <line y2="448" fill="none" x1="1384" clip-path="url(#clipPath2)" x2="1382" y1="448"/>
            <line y2="437" fill="none" x1="34" clip-path="url(#clipPath2)" x2="38" y1="437"/>
            <line y2="437" fill="none" x1="1386" clip-path="url(#clipPath2)" x2="1382" y1="437"/>
            <text x="21" xml:space="preserve" y="441" clip-path="url(#clipPath2)" stroke="none">10</text>
            <text x="1389" xml:space="preserve" y="441" clip-path="url(#clipPath2)" stroke="none">10</text>
            <line y2="425" fill="none" x1="36" clip-path="url(#clipPath2)" x2="38" y1="425"/>
            <line y2="425" fill="none" x1="1384" clip-path="url(#clipPath2)" x2="1382" y1="425"/>
            <line y2="413" fill="none" x1="36" clip-path="url(#clipPath2)" x2="38" y1="413"/>
            <line y2="413" fill="none" x1="1384" clip-path="url(#clipPath2)" x2="1382" y1="413"/>
            <line y2="401" fill="none" x1="36" clip-path="url(#clipPath2)" x2="38" y1="401"/>
            <line y2="401" fill="none" x1="1384" clip-path="url(#clipPath2)" x2="1382" y1="401"/>
            <line y2="389" fill="none" x1="36" clip-path="url(#clipPath2)" x2="38" y1="389"/>
            <line y2="389" fill="none" x1="1384" clip-path="url(#clipPath2)" x2="1382" y1="389"/>
            <line y2="378" fill="none" x1="34" clip-path="url(#clipPath2)" x2="38" y1="378"/>
            <line y2="378" fill="none" x1="1386" clip-path="url(#clipPath2)" x2="1382" y1="378"/>
            <text x="21" xml:space="preserve" y="382" clip-path="url(#clipPath2)" stroke="none">20</text>
            <text x="1389" xml:space="preserve" y="382" clip-path="url(#clipPath2)" stroke="none">20</text>
            <line y2="366" fill="none" x1="36" clip-path="url(#clipPath2)" x2="38" y1="366"/>
            <line y2="366" fill="none" x1="1384" clip-path="url(#clipPath2)" x2="1382" y1="366"/>
            <line y2="354" fill="none" x1="36" clip-path="url(#clipPath2)" x2="38" y1="354"/>
            <line y2="354" fill="none" x1="1384" clip-path="url(#clipPath2)" x2="1382" y1="354"/>
            <line y2="342" fill="none" x1="36" clip-path="url(#clipPath2)" x2="38" y1="342"/>
            <line y2="342" fill="none" x1="1384" clip-path="url(#clipPath2)" x2="1382" y1="342"/>
            <line y2="331" fill="none" x1="36" clip-path="url(#clipPath2)" x2="38" y1="331"/>
            <line y2="331" fill="none" x1="1384" clip-path="url(#clipPath2)" x2="1382" y1="331"/>
            <line y2="319" fill="none" x1="34" clip-path="url(#clipPath2)" x2="38" y1="319"/>
            <line y2="319" fill="none" x1="1386" clip-path="url(#clipPath2)" x2="1382" y1="319"/>
            <text x="21" xml:space="preserve" y="323" clip-path="url(#clipPath2)" stroke="none">30</text>
            <text x="1389" xml:space="preserve" y="323" clip-path="url(#clipPath2)" stroke="none">30</text>
            <line y2="307" fill="none" x1="36" clip-path="url(#clipPath2)" x2="38" y1="307"/>
            <line y2="307" fill="none" x1="1384" clip-path="url(#clipPath2)" x2="1382" y1="307"/>
            <line y2="295" fill="none" x1="36" clip-path="url(#clipPath2)" x2="38" y1="295"/>
            <line y2="295" fill="none" x1="1384" clip-path="url(#clipPath2)" x2="1382" y1="295"/>
            <line y2="283" fill="none" x1="36" clip-path="url(#clipPath2)" x2="38" y1="283"/>
            <line y2="283" fill="none" x1="1384" clip-path="url(#clipPath2)" x2="1382" y1="283"/>
            <line y2="272" fill="none" x1="36" clip-path="url(#clipPath2)" x2="38" y1="272"/>
            <line y2="272" fill="none" x1="1384" clip-path="url(#clipPath2)" x2="1382" y1="272"/>
            <line y2="260" fill="none" x1="34" clip-path="url(#clipPath2)" x2="38" y1="260"/>
            <line y2="260" fill="none" x1="1386" clip-path="url(#clipPath2)" x2="1382" y1="260"/>
            <text x="21" xml:space="preserve" y="264" clip-path="url(#clipPath2)" stroke="none">40</text>
            <text x="1389" xml:space="preserve" y="264" clip-path="url(#clipPath2)" stroke="none">40</text>
            <line y2="248" fill="none" x1="36" clip-path="url(#clipPath2)" x2="38" y1="248"/>
            <line y2="248" fill="none" x1="1384" clip-path="url(#clipPath2)" x2="1382" y1="248"/>
            <line y2="236" fill="none" x1="36" clip-path="url(#clipPath2)" x2="38" y1="236"/>
            <line y2="236" fill="none" x1="1384" clip-path="url(#clipPath2)" x2="1382" y1="236"/>
            <line y2="225" fill="none" x1="36" clip-path="url(#clipPath2)" x2="38" y1="225"/>
            <line y2="225" fill="none" x1="1384" clip-path="url(#clipPath2)" x2="1382" y1="225"/>
            <line y2="213" fill="none" x1="36" clip-path="url(#clipPath2)" x2="38" y1="213"/>
            <line y2="213" fill="none" x1="1384" clip-path="url(#clipPath2)" x2="1382" y1="213"/>
            <line y2="201" fill="none" x1="34" clip-path="url(#clipPath2)" x2="38" y1="201"/>
            <line y2="201" fill="none" x1="1386" clip-path="url(#clipPath2)" x2="1382" y1="201"/>
            <text x="21" xml:space="preserve" y="205" clip-path="url(#clipPath2)" stroke="none">50</text>
            <text x="1389" xml:space="preserve" y="205" clip-path="url(#clipPath2)" stroke="none">50</text>
            <line y2="189" fill="none" x1="36" clip-path="url(#clipPath2)" x2="38" y1="189"/>
            <line y2="189" fill="none" x1="1384" clip-path="url(#clipPath2)" x2="1382" y1="189"/>
            <line y2="177" fill="none" x1="36" clip-path="url(#clipPath2)" x2="38" y1="177"/>
            <line y2="177" fill="none" x1="1384" clip-path="url(#clipPath2)" x2="1382" y1="177"/>
            <line y2="166" fill="none" x1="36" clip-path="url(#clipPath2)" x2="38" y1="166"/>
            <line y2="166" fill="none" x1="1384" clip-path="url(#clipPath2)" x2="1382" y1="166"/>
            <line y2="154" fill="none" x1="36" clip-path="url(#clipPath2)" x2="38" y1="154"/>
            <line y2="154" fill="none" x1="1384" clip-path="url(#clipPath2)" x2="1382" y1="154"/>
            <line y2="142" fill="none" x1="34" clip-path="url(#clipPath2)" x2="38" y1="142"/>
            <line y2="142" fill="none" x1="1386" clip-path="url(#clipPath2)" x2="1382" y1="142"/>
            <text x="21" xml:space="preserve" y="146" clip-path="url(#clipPath2)" stroke="none">60</text>
            <text x="1389" xml:space="preserve" y="146" clip-path="url(#clipPath2)" stroke="none">60</text>
            <line y2="130" fill="none" x1="36" clip-path="url(#clipPath2)" x2="38" y1="130"/>
            <line y2="130" fill="none" x1="1384" clip-path="url(#clipPath2)" x2="1382" y1="130"/>
            <line y2="118" fill="none" x1="36" clip-path="url(#clipPath2)" x2="38" y1="118"/>
            <line y2="118" fill="none" x1="1384" clip-path="url(#clipPath2)" x2="1382" y1="118"/>
            <line y2="107" fill="none" x1="36" clip-path="url(#clipPath2)" x2="38" y1="107"/>
            <line y2="107" fill="none" x1="1384" clip-path="url(#clipPath2)" x2="1382" y1="107"/>
            <line y2="95" fill="none" x1="36" clip-path="url(#clipPath2)" x2="38" y1="95"/>
            <line y2="95" fill="none" x1="1384" clip-path="url(#clipPath2)" x2="1382" y1="95"/>
            <line y2="83" fill="none" x1="34" clip-path="url(#clipPath2)" x2="38" y1="83"/>
            <line y2="83" fill="none" x1="1386" clip-path="url(#clipPath2)" x2="1382" y1="83"/>
            <text x="21" xml:space="preserve" y="87" clip-path="url(#clipPath2)" stroke="none">70</text>
            <text x="1389" xml:space="preserve" y="87" clip-path="url(#clipPath2)" stroke="none">70</text>
            <line y2="71" fill="none" x1="36" clip-path="url(#clipPath2)" x2="38" y1="71"/>
            <line y2="71" fill="none" x1="1384" clip-path="url(#clipPath2)" x2="1382" y1="71"/>
            <line y2="60" fill="none" x1="36" clip-path="url(#clipPath2)" x2="38" y1="60"/>
            <line y2="60" fill="none" x1="1384" clip-path="url(#clipPath2)" x2="1382" y1="60"/>
            <line y2="48" fill="none" x1="36" clip-path="url(#clipPath2)" x2="38" y1="48"/>
            <line y2="48" fill="none" x1="1384" clip-path="url(#clipPath2)" x2="1382" y1="48"/>
            <line y2="36" fill="none" x1="36" clip-path="url(#clipPath2)" x2="38" y1="36"/>
            <line y2="36" fill="none" x1="1384" clip-path="url(#clipPath2)" x2="1382" y1="36"/>
            <line y2="24" fill="none" x1="34" clip-path="url(#clipPath2)" x2="38" y1="24"/>
            <line y2="24" fill="none" x1="1386" clip-path="url(#clipPath2)" x2="1382" y1="24"/>
            <text x="21" xml:space="preserve" y="28" clip-path="url(#clipPath2)" stroke="none">80</text>
            <text x="1389" xml:space="preserve" y="28" clip-path="url(#clipPath2)" stroke="none">80</text>
            <line y2="12" fill="none" x1="36" clip-path="url(#clipPath2)" x2="38" y1="12"/>
            <line y2="12" fill="none" x1="1384" clip-path="url(#clipPath2)" x2="1382" y1="12"/>
            <line y2="500" fill="none" x1="67" clip-path="url(#clipPath4)" x2="218" y1="500"/>
            <line y2="500" fill="none" x1="256" clip-path="url(#clipPath4)" x2="407" y1="500"/>
            <line y2="500" fill="none" x1="445" clip-path="url(#clipPath4)" x2="596" y1="500"/>
            <line y2="500" fill="none" x1="634" clip-path="url(#clipPath4)" x2="785" y1="500"/>
            <line y2="500" fill="none" x1="823" clip-path="url(#clipPath4)" x2="974" y1="500"/>
            <line y2="500" fill="none" x1="1012" clip-path="url(#clipPath4)" x2="1163" y1="500"/>
            <line y2="500" fill="none" x1="1201" clip-path="url(#clipPath4)" x2="1352" y1="500"/>
            <text x="67" xml:space="preserve" y="511" clip-path="url(#clipPath4)" stroke="none">TopologiaMalha.no[0]</text>
            <text x="256" xml:space="preserve" y="511" clip-path="url(#clipPath4)" stroke="none">TopologiaMalha.no[1]</text>
            <text x="445" xml:space="preserve" y="511" clip-path="url(#clipPath4)" stroke="none">TopologiaMalha.no[2]</text>
            <text x="634" xml:space="preserve" y="511" clip-path="url(#clipPath4)" stroke="none">TopologiaMalha.no[3]</text>
            <text x="823" xml:space="preserve" y="511" clip-path="url(#clipPath4)" stroke="none">TopologiaMalha.no[4]</text>
            <text x="1012" xml:space="preserve" y="511" clip-path="url(#clipPath4)" stroke="none">TopologiaMalha.no[5]</text>
            <text x="1201" xml:space="preserve" y="511" clip-path="url(#clipPath4)" stroke="none">TopologiaMalha.no[6]</text>
            <text x="693" xml:space="preserve" y="533" clip-path="url(#clipPath4)" stroke="none">module</text>
        </g>
    </g>
</svg>
